<svg xmlns="http://www.w3.org/2000/svg" xmlns:xlink="http://www.w3.org/1999/xlink" version="1.1" class="marks" width="682" height="394" viewBox="0 0 682 394"><rect width="682" height="394" fill="#202124"/><g fill="none" stroke-miterlimit="10" transform="translate(61,42)"><g class="mark-group role-frame root" role="graphics-object" aria-roledescription="group mark container"><g transform="translate(0,0)"><path class="background" aria-hidden="true" d="M0.5,0.5h600v300h-600Z"/><g><g class="mark-group role-axis" aria-hidden="true"><g transform="translate(0.5,300.5)"><path class="background" aria-hidden="true" d="M0,0h0v0h0Z" pointer-events="none"/><g><g class="mark-rule role-axis-grid" pointer-events="none"><line transform="translate(0,-300)" x2="0" y2="300" stroke="grey" stroke-width="1" opacity="1"/><line transform="translate(50,-300)" x2="0" y2="300" stroke="grey" stroke-width="1" opacity="1"/><line transform="translate(100,-300)" x2="0" y2="300" stroke="grey" stroke-width="1" opacity="1"/><line transform="translate(150,-300)" x2="0" y2="300" stroke="grey" stroke-width="1" opacity="1"/><line transform="translate(200,-300)" x2="0" y2="300" stroke="grey" stroke-width="1" opacity="1"/><line transform="translate(250,-300)" x2="0" y2="300" stroke="grey" stroke-width="1" opacity="1"/><line transform="translate(300,-300)" x2="0" y2="300" stroke="grey" stroke-width="1" opacity="1"/><line transform="translate(350,-300)" x2="0" y2="300" stroke="grey" stroke-width="1" opacity="1"/><line transform="translate(400,-300)" x2="0" y2="300" stroke="grey" stroke-width="1" opacity="1"/><line transform="translate(450,-300)" x2="0" y2="300" stroke="grey" stroke-width="1" opacity="1"/><line transform="translate(500,-300)" x2="0" y2="300" stroke="grey" stroke-width="1" opacity="1"/><line transform="translate(550,-300)" x2="0" y2="300" stroke="grey" stroke-width="1" opacity="1"/><line transform="translate(600,-300)" x2="0" y2="300" stroke="grey" stroke-width="1" opacity="1"/></g></g><path class="foreground" aria-hidden="true" d="" pointer-events="none" display="none"/></g></g><g class="mark-group role-axis" aria-hidden="true"><g transform="translate(0.5,0.5)"><path class="background" aria-hidden="true" d="M0,0h0v0h0Z" pointer-events="none"/><g><g class="mark-rule role-axis-grid" pointer-events="none"><line transform="translate(0,300)" x2="600" y2="0" stroke="grey" stroke-width="1" opacity="1"/><line transform="translate(0,267)" x2="600" y2="0" stroke="grey" stroke-width="1" opacity="1"/><line transform="translate(0,233)" x2="600" y2="0" stroke="grey" stroke-width="1" opacity="1"/><line transform="translate(0,200)" x2="600" y2="0" stroke="grey" stroke-width="1" opacity="1"/><line transform="translate(0,167)" x2="600" y2="0" stroke="grey" stroke-width="1" opacity="1"/><line transform="translate(0,133)" x2="600" y2="0" stroke="grey" stroke-width="1" opacity="1"/><line transform="translate(0,100)" x2="600" y2="0" stroke="grey" stroke-width="1" opacity="1"/><line transform="translate(0,67)" x2="600" y2="0" stroke="grey" stroke-width="1" opacity="1"/><line transform="translate(0,33)" x2="600" y2="0" stroke="grey" stroke-width="1" opacity="1"/><line transform="translate(0,0)" x2="600" y2="0" stroke="grey" stroke-width="1" opacity="1"/></g></g><path class="foreground" aria-hidden="true" d="" pointer-events="none" display="none"/></g></g><g class="mark-group role-axis" role="graphics-symbol" aria-roledescription="axis" aria-label="X-axis titled 'Distribution' for a linear scale with values from −4 to 8"><g transform="translate(0.5,300.5)"><path class="background" aria-hidden="true" d="M0,0h0v0h0Z" pointer-events="none"/><g><g class="mark-rule role-axis-tick" pointer-events="none"><line transform="translate(0,0)" x2="0" y2="5" stroke="white" stroke-width="1" opacity="1"/><line transform="translate(50,0)" x2="0" y2="5" stroke="white" stroke-width="1" opacity="1"/><line transform="translate(100,0)" x2="0" y2="5" stroke="white" stroke-width="1" opacity="1"/><line transform="translate(150,0)" x2="0" y2="5" stroke="white" stroke-width="1" opacity="1"/><line transform="translate(200,0)" x2="0" y2="5" stroke="white" stroke-width="1" opacity="1"/><line transform="translate(250,0)" x2="0" y2="5" stroke="white" stroke-width="1" opacity="1"/><line transform="translate(300,0)" x2="0" y2="5" stroke="white" stroke-width="1" opacity="1"/><line transform="translate(350,0)" x2="0" y2="5" stroke="white" stroke-width="1" opacity="1"/><line transform="translate(400,0)" x2="0" y2="5" stroke="white" stroke-width="1" opacity="1"/><line transform="translate(450,0)" x2="0" y2="5" stroke="white" stroke-width="1" opacity="1"/><line transform="translate(500,0)" x2="0" y2="5" stroke="white" stroke-width="1" opacity="1"/><line transform="translate(550,0)" x2="0" y2="5" stroke="white" stroke-width="1" opacity="1"/><line transform="translate(600,0)" x2="0" y2="5" stroke="white" stroke-width="1" opacity="1"/></g><g class="mark-text role-axis-label" pointer-events="none"><text text-anchor="start" transform="translate(0,15)" font-family="Fira Code" font-size="10px" fill="white" opacity="1">−4</text><text text-anchor="middle" transform="translate(50,15)" font-family="Fira Code" font-size="10px" fill="white" opacity="1">−3</text><text text-anchor="middle" transform="translate(100,15)" font-family="Fira Code" font-size="10px" fill="white" opacity="1">−2</text><text text-anchor="middle" transform="translate(150,15)" font-family="Fira Code" font-size="10px" fill="white" opacity="1">−1</text><text text-anchor="middle" transform="translate(200,15)" font-family="Fira Code" font-size="10px" fill="white" opacity="1">0</text><text text-anchor="middle" transform="translate(250,15)" font-family="Fira Code" font-size="10px" fill="white" opacity="1">1</text><text text-anchor="middle" transform="translate(300,15)" font-family="Fira Code" font-size="10px" fill="white" opacity="1">2</text><text text-anchor="middle" transform="translate(350,15)" font-family="Fira Code" font-size="10px" fill="white" opacity="1">3</text><text text-anchor="middle" transform="translate(400,15)" font-family="Fira Code" font-size="10px" fill="white" opacity="1">4</text><text text-anchor="middle" transform="translate(450,15)" font-family="Fira Code" font-size="10px" fill="white" opacity="1">5</text><text text-anchor="middle" transform="translate(500,15)" font-family="Fira Code" font-size="10px" fill="white" opacity="1">6</text><text text-anchor="middle" transform="translate(550,15)" font-family="Fira Code" font-size="10px" fill="white" opacity="1">7</text><text text-anchor="end" transform="translate(600,15)" font-family="Fira Code" font-size="10px" fill="white" opacity="1">8</text></g><g class="mark-rule role-axis-domain" pointer-events="none"><line transform="translate(0,0)" x2="600" y2="0" stroke="white" stroke-width="1" opacity="1"/></g><g class="mark-text role-axis-title" pointer-events="none"><text text-anchor="middle" transform="translate(300,30)" font-family="Fira Code" font-size="11px" font-weight="bold" fill="white" opacity="1">Distribution</text></g></g><path class="foreground" aria-hidden="true" d="" pointer-events="none" display="none"/></g></g><g class="mark-group role-axis" role="graphics-symbol" aria-roledescription="axis" aria-label="Y-axis titled 'Density' for a linear scale with values from 0 to 450"><g transform="translate(0.5,0.5)"><path class="background" aria-hidden="true" d="M0,0h0v0h0Z" pointer-events="none"/><g><g class="mark-rule role-axis-tick" pointer-events="none"><line transform="translate(0,300)" x2="-5" y2="0" stroke="white" stroke-width="1" opacity="1"/><line transform="translate(0,267)" x2="-5" y2="0" stroke="white" stroke-width="1" opacity="1"/><line transform="translate(0,233)" x2="-5" y2="0" stroke="white" stroke-width="1" opacity="1"/><line transform="translate(0,200)" x2="-5" y2="0" stroke="white" stroke-width="1" opacity="1"/><line transform="translate(0,167)" x2="-5" y2="0" stroke="white" stroke-width="1" opacity="1"/><line transform="translate(0,133)" x2="-5" y2="0" stroke="white" stroke-width="1" opacity="1"/><line transform="translate(0,100)" x2="-5" y2="0" stroke="white" stroke-width="1" opacity="1"/><line transform="translate(0,67)" x2="-5" y2="0" stroke="white" stroke-width="1" opacity="1"/><line transform="translate(0,33)" x2="-5" y2="0" stroke="white" stroke-width="1" opacity="1"/><line transform="translate(0,0)" x2="-5" y2="0" stroke="white" stroke-width="1" opacity="1"/></g><g class="mark-text role-axis-label" pointer-events="none"><text text-anchor="end" transform="translate(-7,303)" font-family="Fira Code" font-size="10px" fill="white" opacity="1">0</text><text text-anchor="end" transform="translate(-7,269.66666666666663)" font-family="Fira Code" font-size="10px" fill="white" opacity="1">50</text><text text-anchor="end" transform="translate(-7,236.33333333333334)" font-family="Fira Code" font-size="10px" fill="white" opacity="1">100</text><text text-anchor="end" transform="translate(-7,203.00000000000003)" font-family="Fira Code" font-size="10px" fill="white" opacity="1">150</text><text text-anchor="end" transform="translate(-7,169.66666666666669)" font-family="Fira Code" font-size="10px" fill="white" opacity="1">200</text><text text-anchor="end" transform="translate(-7,136.33333333333331)" font-family="Fira Code" font-size="10px" fill="white" opacity="1">250</text><text text-anchor="end" transform="translate(-7,103.00000000000001)" font-family="Fira Code" font-size="10px" fill="white" opacity="1">300</text><text text-anchor="end" transform="translate(-7,69.66666666666666)" font-family="Fira Code" font-size="10px" fill="white" opacity="1">350</text><text text-anchor="end" transform="translate(-7,36.33333333333335)" font-family="Fira Code" font-size="10px" fill="white" opacity="1">400</text><text text-anchor="end" transform="translate(-7,3)" font-family="Fira Code" font-size="10px" fill="white" opacity="1">450</text></g><g class="mark-rule role-axis-domain" pointer-events="none"><line transform="translate(0,300)" x2="0" y2="-300" stroke="white" stroke-width="1" opacity="1"/></g><g class="mark-text role-axis-title" pointer-events="none"><text text-anchor="middle" transform="translate(-29.462890625,150) rotate(-90) translate(0,-2)" font-family="Fira Code" font-size="11px" font-weight="bold" fill="white" opacity="1">Density</text></g></g><path class="foreground" aria-hidden="true" d="" pointer-events="none" display="none"/></g></g><g class="mark-group role-scope pathgroup" role="graphics-object" aria-roledescription="group mark container"><g transform="translate(0,0)"><path class="background" aria-hidden="true" d="M0,0h600v300h-600Z"/><g><g class="mark-line role-mark marks" role="graphics-object" aria-roledescription="line mark container"><path aria-label="Distribution: −2.73480106082; Density: 9.87982418815; distribution: beta" role="graphics-symbol" aria-roledescription="line mark" d="M63.26,293.413L68.932,290.426L74.605,286.902L80.277,282.623L85.95,277.242L91.622,270.485L97.295,262.278L102.967,252.683L108.64,241.773L114.312,229.63L119.985,216.368L125.657,202.031L131.33,186.542L137.002,169.942L142.675,152.725L148.347,135.895L154.02,120.666L159.692,107.915L165.365,97.618L171.037,88.701L176.71,79.666L182.382,69.829L188.055,60.263L193.727,53.34L199.4,50.916L205.072,52.872L210.745,57.598L216.417,63.746L222.09,71.114L227.762,79.967L233.435,90.313L239.107,102.255L244.78,116.452L250.452,133.375L256.125,152.043L261.797,170.096L267.47,185.592L273.142,198.615L278.815,210.889L284.487,223.921L290.16,237.7L295.832,251.024L301.505,262.648L307.177,271.993L312.85,279.096L318.522,284.286L324.195,287.995L329.867,290.686L335.539,292.764L341.212,294.502L346.884,296.026" stroke="#368BC1" stroke-width="2" opacity="1"/></g></g><path class="foreground" aria-hidden="true" d="" display="none"/></g><g transform="translate(0,0)"><path class="background" aria-hidden="true" d="M0,0h600v300h-600Z"/><g><g class="mark-line role-mark marks" role="graphics-object" aria-roledescription="line mark container"><path aria-label="Distribution: −2.61300800827; Density: 11.3924196093; distribution: binomial" role="graphics-symbol" aria-roledescription="line mark" d="M69.35,292.405L75.626,289.529L81.902,285.202L88.178,279.521L94.455,273.248L100.731,265.664L107.007,254.407L113.283,239.279L119.56,223.648L125.836,208.568L132.112,188.891L138.388,161.587L144.664,134.317L150.941,115.827L157.217,100.837L163.493,78.305L169.769,53.341L176.046,43.284L182.322,50.246L188.598,57.058L194.874,54.954L201.151,54.82L207.427,63.739L213.703,71.271L219.979,70.205L226.256,72.33L232.532,89.638L238.808,114.606L245.084,133.403L251.361,146.969L257.637,165.008L263.913,187.75L270.189,206.973L276.466,220.093L282.742,231.995L289.018,245.173L295.294,256.72L301.57,264.544L307.847,270.306L314.123,275.749L320.399,280.362L326.675,283.507L332.952,286.049L339.228,288.944L345.504,291.889L351.78,294.126L358.057,295.578L364.333,296.645L370.609,297.517L376.885,298.147L383.162,298.577" stroke="#DDA90D" stroke-width="2" opacity="1"/></g></g><path class="foreground" aria-hidden="true" d="" display="none"/></g><g transform="translate(0,0)"><path class="background" aria-hidden="true" d="M0,0h600v300h-600Z"/><g><g class="mark-line role-mark marks" role="graphics-object" aria-roledescription="line mark container"><path aria-label="Distribution: −3.13653735639; Density: 6.17146240686; distribution: normal" role="graphics-symbol" aria-roledescription="line mark" d="M43.173,295.886L49.373,294.095L55.573,292.481L61.773,291.101L67.974,289.526L74.174,287.099L80.374,283.495L86.574,278.914L92.774,273.486L98.974,266.569L105.174,256.978L111.374,243.961L117.574,227.797L123.775,209.588L129.975,190.817L136.175,172.988L142.375,157.059L148.575,142.784L154.775,128.659L160.975,112.875L167.175,94.898L173.375,76.342L179.576,60.125L185.776,48.791L191.976,43.501L198.176,43.816L204.376,48.06L210.576,54.463L216.776,62.154L222.976,70.981L229.176,81.024L235.377,92.842L241.577,107.425L247.777,125.187L253.977,145.331L260.177,166.39L266.377,186.855L272.577,205.316L278.777,220.725L284.977,232.948L291.178,242.984L297.378,252.355L303.578,262.019L309.778,271.734L315.978,280.385L322.178,286.925L328.378,291.114L334.578,293.509L340.778,294.93L346.979,295.997L353.179,297.012" stroke="#CC771F" stroke-width="2" opacity="1"/></g></g><path class="foreground" aria-hidden="true" d="" display="none"/></g><g transform="translate(0,0)"><path class="background" aria-hidden="true" d="M0,0h600v300h-600Z"/><g><g class="mark-line role-mark marks" role="graphics-object" aria-roledescription="line mark container"><path aria-label="Distribution: −2.43413478118; Density: 4.09291435695; distribution: gamma" role="graphics-symbol" aria-roledescription="line mark" d="M78.293,297.271L84.806,294.826L91.318,290.06L97.83,281.78L104.343,269.232L110.855,252.234L117.367,230.922L123.88,205.688L130.392,177.469L136.904,147.958L143.417,119.506L149.929,94.75L156.441,75.619L162.954,62.011L169.466,51.717L175.979,42.57L182.491,34.893L189.003,31.312L195.516,34.159L202.028,43.406L208.54,56.866L215.053,72.006L221.565,87.713L228.077,104.381L234.59,122.296L241.102,140.59L247.614,158.078L254.127,174.583L260.639,190.99L267.151,207.761L273.664,223.518L280.176,235.982L286.688,244.524L293.201,250.934L299.713,257.504L306.226,265.032L312.738,272.705L319.25,279.284L325.763,284.102L332.275,287.321L338.787,289.578L345.3,291.408L351.812,292.929L358.324,294.017L364.837,294.578L371.349,294.656L377.861,294.511L384.374,294.542L390.886,295.025L397.398,295.933L403.911,297.051" stroke="#BB4430" stroke-width="2" opacity="1"/></g></g><path class="foreground" aria-hidden="true" d="" display="none"/></g><g transform="translate(0,0)"><path class="background" aria-hidden="true" d="M0,0h600v300h-600Z"/><g><g class="mark-line role-mark marks" role="graphics-object" aria-roledescription="line mark container"><path aria-label="Distribution: −1.99898988311; Density: 19.8046846085; distribution: gumbel" role="graphics-symbol" aria-roledescription="line mark" d="M100.051,286.797L109.375,266.611L118.7,232.836L128.024,190.421L137.349,148.347L146.674,110.126L155.998,71.7L165.323,34.513L174.648,10.404L183.972,5.912L193.297,18.206L202.622,41.859L211.946,68.622L221.271,93.704L230.596,118.866L239.92,145.951L249.245,173.808L258.569,199.828L267.894,221.421L277.219,237.942L286.543,249.678L295.868,256.768L305.193,262.217L314.517,269.723L323.842,278.333L333.167,284.991L342.491,289.016L351.816,291.457L361.141,293.034L370.465,293.959L379.79,294.735L389.114,295.955L398.439,297.628L407.764,299.06L417.088,299.768L426.413,299.966L435.738,299.997L445.062,300L454.387,300L463.712,300L473.036,300L482.361,300L491.686,300L501.01,300L510.335,300L519.66,299.999L528.984,299.988L538.309,299.913L547.633,299.65L556.958,299.195L566.283,298.936" stroke="#8A9A67" stroke-width="2" opacity="1"/></g></g><path class="foreground" aria-hidden="true" d="" display="none"/></g><g transform="translate(0,0)"><path class="background" aria-hidden="true" d="M0,0h600v300h-600Z"/><g><g class="mark-line role-mark marks" role="graphics-object" aria-roledescription="line mark container"><path aria-label="Distribution: −2.49179180161; Density: 6.56074961624; distribution: poisson" role="graphics-symbol" aria-roledescription="line mark" d="M75.41,295.626L81.326,292.487L87.242,287.683L93.158,280.573L99.074,270.467L104.989,256.922L110.905,240.228L116.821,221.68L122.737,202.968L128.652,184.923L134.568,167.087L140.484,148.714L146.4,130.035L152.316,112.306L158.231,96.51L164.147,82.315L170.063,68.645L175.979,55.089L181.895,42.609L187.81,33.03L193.726,28.052L199.642,28.729L205.558,35.248L211.474,46.86L217.389,62.315L223.305,80.377L229.221,100.006L235.137,120.345L241.052,140.564L246.968,159.773L252.884,177.116L258.8,191.912L264.716,203.957L270.631,213.838L276.547,222.753L282.463,231.796L288.379,241.317L294.295,250.899L300.21,259.761L306.126,267.123L312.042,272.539L317.958,276.156L323.873,278.638L329.789,280.8L335.705,283.26L341.621,286.234L347.537,289.44L353.452,292.244L359.368,294.14L365.284,295.193L371.2,295.926" stroke="#8B5260" stroke-width="2" opacity="1"/></g></g><path class="foreground" aria-hidden="true" d="" display="none"/></g></g><g class="mark-group role-legend" role="graphics-symbol" aria-roledescription="legend" aria-label="Symbol legend titled 'distribution' for stroke color with 6 values: beta, binomial, gamma, gumbel, normal, poisson"><g transform="translate(500,18)"><path class="background" aria-hidden="true" d="M0,0h82v92h-82Z" pointer-events="none"/><g><g class="mark-group role-legend-entry"><g transform="translate(0,16)"><path class="background" aria-hidden="true" d="M0,0h0v0h0Z" pointer-events="none"/><g><g class="mark-group role-scope distribution_legend_entries" role="graphics-object" aria-roledescription="group mark container"><g transform="translate(0,0)"><path class="background" aria-hidden="true" d="M0,0h65.234375v11h-65.234375Z" opacity="1"/><g><g class="mark-symbol role-legend-symbol distribution_legend_symbols"><path transform="translate(6,6)" d="M-5,0L5,0" stroke="#368BC1" stroke-width="1.5" opacity="1"/></g><g class="mark-text role-legend-label distribution_legend_labels"><text text-anchor="start" transform="translate(16,9)" font-family="Fira Code" font-size="10px" fill="white" opacity="1">beta</text></g></g><path class="foreground" aria-hidden="true" d="" display="none"/></g><g transform="translate(0,13)"><path class="background" aria-hidden="true" d="M0,0h65.234375v11h-65.234375Z" opacity="1"/><g><g class="mark-symbol role-legend-symbol distribution_legend_symbols"><path transform="translate(6,6)" d="M-5,0L5,0" stroke="#DDA90D" stroke-width="1.5" opacity="1"/></g><g class="mark-text role-legend-label distribution_legend_labels"><text text-anchor="start" transform="translate(16,9)" font-family="Fira Code" font-size="10px" fill="white" opacity="1">binomial</text></g></g><path class="foreground" aria-hidden="true" d="" display="none"/></g><g transform="translate(0,26)"><path class="background" aria-hidden="true" d="M0,0h65.234375v11h-65.234375Z" opacity="1"/><g><g class="mark-symbol role-legend-symbol distribution_legend_symbols"><path transform="translate(6,6)" d="M-5,0L5,0" stroke="#BB4430" stroke-width="1.5" opacity="1"/></g><g class="mark-text role-legend-label distribution_legend_labels"><text text-anchor="start" transform="translate(16,9)" font-family="Fira Code" font-size="10px" fill="white" opacity="1">gamma</text></g></g><path class="foreground" aria-hidden="true" d="" display="none"/></g><g transform="translate(0,39)"><path class="background" aria-hidden="true" d="M0,0h65.234375v11h-65.234375Z" opacity="1"/><g><g class="mark-symbol role-legend-symbol distribution_legend_symbols"><path transform="translate(6,6)" d="M-5,0L5,0" stroke="#8A9A67" stroke-width="1.5" opacity="1"/></g><g class="mark-text role-legend-label distribution_legend_labels"><text text-anchor="start" transform="translate(16,9)" font-family="Fira Code" font-size="10px" fill="white" opacity="1">gumbel</text></g></g><path class="foreground" aria-hidden="true" d="" display="none"/></g><g transform="translate(0,52)"><path class="background" aria-hidden="true" d="M0,0h65.234375v11h-65.234375Z" opacity="1"/><g><g class="mark-symbol role-legend-symbol distribution_legend_symbols"><path transform="translate(6,6)" d="M-5,0L5,0" stroke="#CC771F" stroke-width="1.5" opacity="1"/></g><g class="mark-text role-legend-label distribution_legend_labels"><text text-anchor="start" transform="translate(16,9)" font-family="Fira Code" font-size="10px" fill="white" opacity="1">normal</text></g></g><path class="foreground" aria-hidden="true" d="" display="none"/></g><g transform="translate(0,65)"><path class="background" aria-hidden="true" d="M0,0h65.234375v11h-65.234375Z" opacity="1"/><g><g class="mark-symbol role-legend-symbol distribution_legend_symbols"><path transform="translate(6,6)" d="M-5,0L5,0" stroke="#8B5260" stroke-width="1.5" opacity="1"/></g><g class="mark-text role-legend-label distribution_legend_labels"><text text-anchor="start" transform="translate(16,9)" font-family="Fira Code" font-size="10px" fill="white" opacity="1">poisson</text></g></g><path class="foreground" aria-hidden="true" d="" display="none"/></g></g></g><path class="foreground" aria-hidden="true" d="" pointer-events="none" display="none"/></g></g><g class="mark-text role-legend-title" pointer-events="none"><text text-anchor="start" transform="translate(0,9)" font-family="Fira Code" font-size="11px" font-weight="bold" fill="white" opacity="1">distribution</text></g></g><path class="foreground" aria-hidden="true" d="" pointer-events="none" display="none"/></g></g><g class="mark-group role-title"><g transform="translate(300,-22)"><path class="background" aria-hidden="true" d="M0,0h0v0h0Z" pointer-events="none"/><g><g class="mark-text role-title-text" role="graphics-symbol" aria-roledescription="title" aria-label="Title text 'Overlayed Densities'" pointer-events="none"><text text-anchor="middle" transform="translate(0,10)" font-family="Fira Code" font-size="13px" font-weight="bold" fill="white" opacity="1">Overlayed Densities</text></g></g><path class="foreground" aria-hidden="true" d="" pointer-events="none" display="none"/></g></g></g><path class="foreground" aria-hidden="true" d="" display="none"/></g></g></g></svg>